<svg xmlns="http://www.w3.org/2000/svg" viewBox="0 0 100 80" width="1000" height="800">
<style>
	.st0{fill:#FFFFFF;}
	.st1{fill:#C6165D;}
</style>
<path class="st1" d="M81,1.4v72.4c-29.3,4.3-39.7,13-39.7,13S31,78.2,1.7,73.8V1.4c0,0,23.8,6.8,27.5,7.8c3.3,0.8,7.4,2.1,12.1,8.1  c4.7-6,8.8-7.3,12.1-8.1C57.2,8.2,81,1.4,81,1.4z"/>
<path class="st0" d="M69.3,36.3L69.3,36.3c-0.1-0.1-3.1-3.3-8.7-0.9c-0.4,0.2-0.7,0.5-0.9,0.9c-0.1,0.3-0.1,0.6,0,0.9  c0.3,0.4,0.7,0.7,1.2,0.8h0.6l-0.1,0.7c-0.5,9.5-3.7,16.1-9.4,20c-2.8,1.9-6.2,3-9.6,3.1C20.4,60.3,21,39.9,21,39v-1h0.5  c0.6,0.1,1.2-0.2,1.4-0.7c0.1-0.3,0.1-0.6,0-0.9c-0.2-0.4-0.5-0.7-0.9-0.9c-5.6-2.3-8.6,0.8-8.7,0.9c-0.5,0.5-0.4,1.3,0.2,1.8  c0,0,0.1,0.1,0.2,0.1c0.2,0.1,0.3,0.2,0.5,0.3c0.2,0.1,0.5,0.1,0.7,0.1h0.5v0.5c0,2.7,0.8,26.3,26.7,28.1h0.1  c1,0,23.4-0.3,24.8-28.1v-0.9l0.6,0.1c0.3,0.1,0.6,0,0.9-0.1c0.2-0.1,0.3-0.2,0.5-0.3c0.3-0.3,0.5-0.6,0.6-1  C69.6,36.7,69.5,36.4,69.3,36.3z"/>
</svg>
